<svg width="28" height="28" viewBox="0 0 28 28" fill="none" xmlns="http://www.w3.org/2000/svg">
<path fill-rule="evenodd" clip-rule="evenodd" d="M22.4177 5.21619C22.1248 4.92794 21.65 4.92794 21.3571 5.21619L19.2693 7.27086C17.6565 6.1629 15.8555 5.57543 14 5.57543C11.9432 5.57543 9.94745 6.29542 8.21856 7.64201C6.51054 8.96402 5.08697 10.8706 4.06144 13.2081C3.97974 13.3943 3.97951 13.6054 4.06081 13.7918C4.94643 15.8222 6.13598 17.5255 7.55444 18.7999L5.58307 20.74L5.51045 20.8228C5.2926 21.1117 5.3168 21.5218 5.58307 21.7838C5.87596 22.0721 6.35084 22.0721 6.64373 21.7838L22.4177 6.26002L22.4903 6.17724C22.7082 5.88828 22.684 5.47823 22.4177 5.21619ZM8.61636 17.7548L10.7542 15.6508C10.3226 15.0256 10.086 14.285 10.086 13.5012C10.086 11.3684 11.8337 9.6473 14 9.6473C14.7921 9.6473 15.5527 9.88178 16.1867 10.3046L18.1892 8.33382C16.8815 7.49055 15.4565 7.05163 14 7.05163C12.2903 7.05163 10.6199 7.65424 9.14764 8.80096C7.73781 9.89217 6.52945 11.4607 5.61706 13.4004L5.5704 13.5014L5.61575 13.6003C6.40872 15.2948 7.43049 16.7038 8.61636 17.7548ZM15.0935 11.3804C14.7618 11.2141 14.3876 11.1235 14 11.1235C12.6624 11.1235 11.586 12.1835 11.586 13.5012C11.586 13.885 11.6767 14.2495 11.8468 14.5756L15.0935 11.3804ZM17.1366 13.3158L17.238 13.3269C17.6456 13.3991 17.9167 13.7828 17.8434 14.184C17.556 15.7567 16.2992 16.996 14.7022 17.2813C14.2946 17.3541 13.9042 17.088 13.8303 16.6869C13.7563 16.2858 14.0267 15.9016 14.4342 15.8288C15.4152 15.6536 16.1904 14.8892 16.367 13.9227C16.4343 13.555 16.7675 13.3002 17.1366 13.3158ZM20.997 9.81439C21.3279 9.56924 21.7981 9.63452 22.0472 9.96021C22.773 10.9091 23.4073 11.9985 23.9384 13.2072C24.0205 13.394 24.0205 13.6059 23.9386 13.7927C21.8613 18.5289 18.1345 21.4245 14 21.4245C13.0588 21.4245 12.1275 21.2747 11.2306 20.9801C10.8377 20.851 10.6254 20.4329 10.7566 20.0463C10.8877 19.6596 11.3125 19.4507 11.7054 19.5798C12.4497 19.8242 13.2207 19.9483 14 19.9483C17.3046 19.9483 20.381 17.6864 22.2727 13.8298L22.4284 13.5014L22.3755 13.3846C21.9948 12.5784 21.5645 11.839 21.0898 11.1741L20.8488 10.848C20.5997 10.5223 20.666 10.0595 20.997 9.81439Z" fill="#BFBFBF"/>
</svg>
