<svg width="34" height="34" viewBox="0 0 34 34" fill="none" xmlns="http://www.w3.org/2000/svg">
<rect width="34" height="34" rx="6" fill="white"/>
<g clip-path="url(#clip0_738_4137)">
<path fill-rule="evenodd" clip-rule="evenodd" d="M7.68406 6.77134C7.68406 6.77134 7.40712 6.9421 7.35173 7.31379C7.29635 7.68547 7.35173 10.0525 7.35173 10.0525V12.7912L6.02896 13.7677C4.38625 14.9802 4.25 15.1484 4.25 15.9642C4.25 17.3106 5.66328 17.9622 6.78024 17.1307C7.03259 16.9429 7.26444 16.7892 7.29535 16.7892C7.32637 16.7892 7.35173 19.2542 7.35173 22.2669V27.7445C7.35173 27.7445 7.29635 28.1731 7.57329 28.4008C7.85023 28.6285 8.21191 28.6285 8.21191 28.6285H16.6015H24.9912C24.9912 28.6285 25.4083 28.6285 25.6298 28.4008C25.8514 28.1731 25.8514 27.7445 25.8514 27.7445V22.2669C25.8514 19.2542 25.8767 16.7892 25.9077 16.7892C25.9387 16.7892 26.1705 16.9429 26.4229 17.1307C27.5477 17.9681 28.9531 17.3107 28.9531 15.9471C28.9531 15.044 29.0218 15.1042 22.7053 10.4782L17.1777 6.42983C17.1777 6.42983 17.1712 6.31599 16.6015 6.31599C16.0319 6.31599 15.9939 6.45294 13.2351 8.47893C11.7005 9.60594 10.4218 10.528 10.3938 10.528C10.3656 10.528 10.3427 9.80482 10.3427 8.92086V7.31379C10.3427 7.31379 10.1765 6.9421 10.0104 6.88518C10.0104 6.82826 9.43754 6.42983 8.84721 6.42983C8.25689 6.42983 7.68406 6.77134 7.68406 6.77134ZM19.7561 12.2419L22.8625 14.5248L22.8338 20.0114L22.805 25.4979H21.2541H19.7033L19.6479 21.9316L19.5925 18.3652C19.5925 18.3652 19.4817 17.9845 19.3156 17.8138C19.1494 17.643 18.7649 17.5861 18.7649 17.5861H16.6015H14.4382C14.4382 17.5861 14.0537 17.5861 13.8321 17.8138C13.6106 18.0414 13.6106 18.3652 13.6106 18.3652L13.5552 21.9316L13.4998 25.4979H11.9489H10.3981L10.3693 20.0113L10.3406 14.5247L13.4156 12.251C15.107 11.0004 16.5266 9.97307 16.5703 9.96807C16.6141 9.96294 18.0476 10.9862 19.7561 12.2419Z" fill="#007AFF"/>
</g>
<defs>
<clipPath id="clip0_738_4137">
<rect width="25.5" height="25.5" fill="white" transform="translate(4.25 4.72224)"/>
</clipPath>
</defs>
</svg>
